<svg viewBox="0 0 100 100" xml:space="preserve" xmlns="http://www.w3.org/2000/svg"><g fill="#437daf" class="fill-231f20"><path d="M34 41h28v2H34z"></path><circle cx="28.202" cy="42" r="2"></circle><path d="M34 51h28v2H34z"></path><circle cx="28.202" cy="52" r="2"></circle><circle cx="28.202" cy="62" r="2"></circle><path d="M34 71h16v2H34z"></path><circle cx="28.202" cy="72" r="2"></circle><path d="m91.796 36.109-2.828-2.828-1.768 1.768-.707-.707-2.755 2.651L74 46.63V30c0-6.617-5.179-12-11.796-12H61v-1c0-1.1-.696-2-1.796-2h-11a4 4 0 0 0-8 0h-11c-1.1 0-2.204.9-2.204 2v1h-.796C19.587 18 14 23.383 14 30v50c0 6.617 5.587 12 12.204 12h36C68.821 92 74 86.617 74 80V55.114L87.098 42h.051l3.562-3.476-.695-.678 1.78-1.737zM44.204 13a2 2 0 1 1-.001 4.001A2 2 0 0 1 44.204 13zM70 80c0 4.411-3.385 8-7.796 8h-36C21.793 88 18 84.411 18 80V30c0-4.411 3.793-8 8.204-8h1l-1 4c0 1.1.9 2 2 2h32c1.1 0 2-.9 2-2l-1-4h1C66.615 22 70 25.589 70 30v20.63L59.835 61H34v2h23.835l-2.278 2.278-1.768 3.889h-.001l-1.768 3.89 7.677-3.537L70 59.114V80zM58.233 69.369l-2.916 1.326-.936-.935 1.326-2.917 2.324 2.323.202.203zm29.143-28.841L84.548 37.7l1.794-1.793-.202.202 2.827 2.827.354-.354.001.001-1.946 1.945z"></path></g></svg>